<svg height="496pt" viewBox="-84 0 496 496" width="496pt" xmlns="http://www.w3.org/2000/svg"><path d="m296 288v152h-264v-152zm0 0" fill="#656d78"/><path d="m296 104v152h-264v-152zm0 0" fill="#656d78"/><path d="m328 72v400h-328v-400h56v32h-24v152h264v-152h-24v-32zm-32 368v-152h-264v152zm0 0" fill="#434a54"/><path d="m256 40h-40v-40zm0 0" fill="#f5f7fa"/><path d="m256 64h-136l-16-16h-32v-48h144v40h40zm0 0" fill="#e6e9ed"/><path d="m120 64h152v40h-216v-56h48zm0 0" fill="#ffce54"/><path d="m32 472h64v24h-64zm0 0" fill="#353b44"/><path d="m232 472h64v24h-64zm0 0" fill="#353b44"/><g fill="#ccd1d9"><path d="m136 176h56v-4c0-6.640625 5.359375-12 12-12s12 5.359375 12 12v16c0 6.640625-5.359375 12-12 12h-80c-6.640625 0-12-5.359375-12-12v-16c0-6.640625 5.359375-12 12-12s12 5.359375 12 12zm0 0"/><path d="m136 360h56v-4c0-6.640625 5.359375-12 12-12s12 5.359375 12 12v16c0 6.640625-5.359375 12-12 12h-80c-6.640625 0-12-5.359375-12-12v-16c0-6.640625 5.359375-12 12-12s12 5.359375 12 12zm0 0"/></g></svg>